# xmcd
#
# Track frame offsets: 
#        150
#        18993
#        32831
#        50962
#        66580
#        88414
#        108636
#        129550
#        145964
#        166557
#        186646
#        203657
#        222675
#        244830
#
# Disc length: 3496 seconds
#
# Revision: 2
# Processed by: cddbd v1.5.2PL0 Copyright (c) Steve Scherf et al.
# Submitted via: ExactAudioCopy v1.1
#
DISCID=e20da60e
DTITLE=Kelis - The Hits
DYEAR=2008
DGENRE=Hip-Hop
TTITLE0=Caught Out There
TTITLE1=Milkshake
TTITLE2=Got Your Money (Feat. Ol' Dirty Bastard)
TTITLE3=Trick Me
TTITLE4=Lil Star (Feat. Cee-Lo)
TTITLE5=Get Along With You
TTITLE6=Young, Fresh 'n' New
TTITLE7=Truth Or Dare (Feat. N.E.R.D. and Pusha T)
TTITLE8=Bossy (Feat. Too Short)
TTITLE9=In Public (Feat. Nas)
TTITLE10=Millionaire (Feat. André 3000)
TTITLE11=Finest Dreams (Feat. Richard X)
TTITLE12=Suspended
TTITLE13=Good Stuff (Feat. Terrar)
EXTD=
EXTT0=
EXTT1=
EXTT2=
EXTT3=
EXTT4=
EXTT5=
EXTT6=
EXTT7=
EXTT8=
EXTT9=
EXTT10=
EXTT11=
EXTT12=
EXTT13=
PLAYORDER=
